<svg width="100" height="100" viewBox="0 0 100 100" xmlns="http://www.w3.org/2000/svg">
  <!-- Camera body -->
  <rect x="10" y="25" width="80" height="50" rx="10" fill="none" stroke="#d4a017" stroke-width="4" />
  <!-- Leather texture (diagonal lines) -->
  <line x1="15" y1="30" x2="25" y2="40" stroke="#d4a017" stroke-width="1" opacity="0.7" />
  <line x1="25" y1="30" x2="35" y2="40" stroke="#d4a017" stroke-width="1" opacity="0.7" />
  <line x1="65" y1="60" x2="75" y2="70" stroke="#d4a017" stroke-width="1" opacity="0.7" />
  <line x1="75" y1="60" x2="85" y2="70" stroke="#d4a017" stroke-width="1" opacity="0.7" />
  <!-- Lens mount ring -->
  <circle cx="35" cy="50" r="16" fill="none" stroke="#d4a017" stroke-width="1" opacity="0.5" />
  <circle cx="65" cy="50" r="16" fill="none" stroke="#d4a017" stroke-width="1" opacity="0.5" />
  <!-- Viewfinder -->
  <rect x="38" y="12" width="24" height="14" rx="3" fill="none" stroke="#d4a017" stroke-width="3" />
  <!-- Shutter button -->
  <circle cx="75" cy="18" r="5" fill="#d4a017" stroke="#2b1a0f" stroke-width="1" />
  <!-- Film advance knob -->
  <rect x="5" y="20" width="8" height="12" rx="2" fill="#d4a017" stroke="#2b1a0f" stroke-width="1" />
  <!-- Strap lug -->
  <rect x="88" y="23" width="4" height="8" rx="1" fill="#d4a017" />
  <!-- Left whiskey bottle (lens) -->
  <rect x="25" y="38" width="20" height="24" rx="3" fill="#f4e4bc" stroke="#2b1a0f" stroke-width="2" />
  <path d="M32,38 L38,38 L36,33 L34,33 Z" fill="#2b1a0f" /> <!-- Bottle cap -->
  <rect x="28" y="45" width="14" height="6" rx="1" fill="#2b1a0f" opacity="0.8" /> <!-- Label -->
  <path d="M26,40 Q30,38 32,40" fill="none" stroke="#ffffff" stroke-width="1" opacity="0.5" /> <!-- Glass shine -->
  <!-- Right whiskey bottle (lens) -->
  <rect x="55" y="34" width="20" height="28" rx="3" fill="#f4e4bc" stroke="#2b1a0f" stroke-width="2" />
  <path d="M62,34 L68,34 L66,29 L64,29 Z" fill="#2b1a0f" /> <!-- Bottle cap -->
  <rect x="58" y="43" width="14" height="6" rx="1" fill="#2b1a0f" opacity="0.8" /> <!-- Label -->
  <path d="M56,36 Q60,34 62,36" fill="none" stroke="#ffffff" stroke-width="1" opacity="0.5" /> <!-- Glass shine -->
</svg>